# 3ds Max Wavefront OBJ Exporter v0.97b - (c)2007 guruware
# File Created: 21.01.2012 19:00:23

#
# object default
#

v  0.7100 0.4850 1.0000
v  0.7100 0.4850 -1.0000
v  1.2100 0.4850 -1.0000
v  1.2100 0.4850 1.0000
v  0.7100 1.4850 1.0000
v  1.2100 1.4850 1.0000
v  1.2100 1.4850 -1.0097
v  0.7100 1.4850 -1.0000
v  0.7100 1.2350 0.4700
v  0.7100 0.7350 0.4700
v  0.7100 0.7350 -0.5300
v  0.7100 1.2350 -0.5300
v  -0.6650 0.7350 -0.5300
v  -0.6650 0.7350 0.4700
v  -0.6650 1.2350 -0.5300
v  -0.6650 1.2350 0.4700
# 16 vertices

vn 0.0000 -1.0000 -0.0000
vn 0.0000 1.0000 -0.0000
vn 0.0000 0.0000 1.0000
vn 1.0000 0.0000 -0.0000
vn -0.0057 -0.0029 -1.0000
vn 0.0000 0.0000 -1.0000
vn -0.0137 -0.0069 -0.9999
vn -0.0195 -0.0097 -0.9998
vn -1.0000 0.0000 -0.0000
# 9 vertex normals

vt 0.4730 0.0341 0.0000
vt 0.4730 0.6343 0.0000
vt 0.6338 0.6343 0.0000
vt 0.6338 0.0341 0.0000
vt 0.6338 0.6372 0.0000
vt 0.4737 0.6349 0.0000
vt 0.6345 0.6349 0.0000
vt 0.6345 0.9607 0.0000
vt 0.4737 0.9607 0.0000
vt 0.6339 0.0345 0.0000
vt 0.6342 0.6326 0.0000
vt 0.9601 0.6352 0.0000
vt 0.9599 0.0341 0.0000
vt 0.8785 0.1927 0.0000
vt 0.7155 0.1929 0.0000
vt 0.7156 0.4920 0.0000
vt 0.9601 0.6323 0.0000
vt 0.8786 0.4918 0.0000
vt 0.0307 0.4932 0.0000
vt 0.4730 0.4932 0.0000
vt 0.4730 0.1931 0.0000
vt 0.0307 0.1931 0.0000
vt 0.4737 0.7164 0.0000
vt 0.0314 0.7164 0.0000
vt 0.0314 0.8792 0.0000
vt 0.4737 0.8792 0.0000
# 26 texture coords

g default
f 1/1/1 2/2/1 3/3/1 
f 3/3/1 4/4/1 1/1/1 
f 5/1/2 6/4/2 7/5/2 
f 7/5/2 8/2/2 5/1/2 
f 1/6/3 4/7/3 6/8/3 
f 6/8/3 5/9/3 1/6/3 
f 4/10/4 3/11/4 7/12/4 
f 7/12/4 6/13/4 4/10/4 
f 3/7/5 2/6/6 8/9/7 
f 8/9/7 7/8/8 3/7/5 
f 5/13/9 9/14/9 10/15/9 
f 1/10/9 5/13/9 10/15/9 
f 1/10/9 10/15/9 11/16/9 
f 2/11/9 1/10/9 11/16/9 
f 8/17/9 2/11/9 11/16/9 
f 8/17/9 11/16/9 12/18/9 
f 5/13/9 8/17/9 12/18/9 
f 9/14/9 5/13/9 12/18/9 
f 13/19/1 11/20/1 10/21/1 
f 10/21/1 14/22/1 13/19/1 
f 9/21/2 12/20/2 15/19/2 
f 15/19/2 16/22/2 9/21/2 
f 13/16/9 14/15/9 16/14/9 
f 16/14/9 15/18/9 13/16/9 
f 11/23/6 13/24/6 15/25/6 
f 15/25/6 12/26/6 11/23/6 
f 16/25/3 14/24/3 10/23/3 
f 10/23/3 9/26/3 16/25/3 
# 28 faces

