v 0.8398 1.5145 0.9899
v 0.6151 1.5414 1.0103
v 0.6165 1.5342 0.7932
v 0.9028 1.5 0.754
v 0.6179 1.5288 0.5459
v 1.0283 1.5 0.5194
v 0.6194 1.5255 0.2779
v 1.1055 1.5 0.2648
v 0.6209 1.5229 -0.0007
v 1.1199 1.5 -0
v 0.6223 1.5241 -0.2789
v 1.1055 1.5 -0.2648
v 0.6235 1.5275 -0.5461
v 1.0283 1.5 -0.5194
v 0.3753 1.533 -0.7921
v 0.9028 1.5 -0.754
v 0.6253 1.5403 -1.0074
v 0.8398 1.5145 -0.9899
v 0.0235 1.5289 -1.4266
v 0.0235 1.2701 -1.4734
v -0.2639 1.2701 -1.4451
v -0.2548 1.5289 -1.3992
v -0.5403 1.2701 -1.3613
v -0.5224 1.5289 -1.318
v -0.7951 1.2701 -1.2251
v -0.769 1.5289 -1.1862
v -1.0183 1.2701 -1.0419
v -0.9852 1.5289 -1.0087
v -1.2016 1.2701 -0.8186
v -1.1626 1.5289 -0.7926
v -1.3377 1.2701 -0.5639
v -1.2945 1.5289 -0.5459
v -1.4216 1.2701 -0.2875
v -1.3756 1.5289 -0.2783
v -1.4499 1.2701 0
v -1.4031 1.5289 0
v -1.4216 1.2701 0.2875
v -1.3756 1.5289 0.2783
v -1.3377 1.2701 0.5639
v -1.2945 1.5289 0.5459
v -1.2016 1.2701 0.8186
v -1.1626 1.5289 0.7926
v -1.0183 1.2701 1.0419
v -0.9852 1.5289 1.0087
v -0.7951 1.2701 1.2251
v -0.769 1.5289 1.1862
v -0.5403 1.2701 1.3613
v -0.5224 1.5289 1.318
v -0.2639 1.2701 1.4451
v -0.2548 1.5289 1.3992
v 0.0235 1.2701 1.4734
v 0.0235 1.5289 1.4266
v 0.311 1.2701 1.4451
v 0.3018 1.5289 1.3992
v 0.5874 1.2701 1.3613
v 0.5695 1.5289 1.318
v 0.875 1.2701 1
v 0.6257 1.2801 1.0431
v 0.3779 1.2726 0.8189
v 0.3794 1.2671 0.5635
v 0.381 1.2637 0.2867
v 0.3825 1.2626 -0.0009
v 0.3839 1.2638 -0.2882
v 0.3851 1.2673 -0.5642
v 0.3862 1.273 -0.8182
v 0.6362 1.2806 -1.0406
v 0.875 1.2701 -1
v 0.5874 1.2701 -1.3613
v 0.5695 1.5289 -1.318
v 0.311 1.2701 -1.4451
v 0.3018 1.5289 -1.3992
v 0.0235 1.005 -1.497
v -0.2685 1.005 -1.4683
v -0.5494 1.005 -1.3831
v -0.8082 1.005 -1.2447
v -1.035 1.005 -1.0586
v -1.2212 1.005 -0.8317
v -1.3596 1.005 -0.5729
v -1.4447 1.005 -0.2921
v -1.4735 1.005 0
v -1.4447 1.005 0.2921
v -1.3595 1.005 0.5729
v -1.2212 1.005 0.8317
v -1.035 1.005 1.0586
v -0.8082 1.005 1.2447
v -0.5494 1.005 1.3831
v -0.2685 1.005 1.4683
v 0.0235 1.005 1.497
v 0.3156 1.005 1.4683
v 0.5964 1.005 1.3831
v 0.875 1.005 1
v 0.6365 1.0162 1.0599
v 0.3656 1.0085 0.8321
v 0.3672 1.0029 0.5726
v 0.3687 0.9994 0.2914
v 0.3703 0.9983 -0.0008
v 0.3717 0.9996 -0.2927
v 0.3729 1.0031 -0.5731
v 0.374 1.0089 -0.8312
v 0.6471 1.0166 -1.0572
v 0.875 1.005 -1
v 0.5964 1.005 -1.3831
v 0.3156 1.005 -1.4683
v 0.0061 0.7371 -1.5149
v -0.2809 0.7372 -1.4807
v -0.571 0.7414 -1.4002
v -0.8295 0.7417 -1.2607
v -1.0571 0.7416 -1.0746
v -1.2349 0.7372 -0.8432
v -1.3824 0.7415 -0.5882
v -1.4675 0.7416 -0.3066
v -1.496 0.7417 -0.0137
v -1.4679 0.7415 0.2782
v -1.3827 0.7414 0.5595
v -1.244 0.7422 0.8196
v -1.0577 0.7418 1.0464
v -0.8301 0.7415 1.2327
v -0.5658 0.7377 1.3724
v -0.2852 0.7375 1.4572
v 0.0093 0.7355 1.4861
v 0.2964 0.7358 1.4564
v 0.5824 0.7361 1.3718
v 0.875 0.7339 1
v 0.6475 0.7499 1.0488
v 0.3767 0.7408 0.8205
v 0.3783 0.7343 0.5603
v 0.3799 0.7302 0.2786
v 0.3813 0.7318 -0.0143
v 0.3827 0.7348 -0.3058
v 0.3838 0.7409 -0.5881
v 0.3849 0.7467 -0.8463
v 0.6582 0.7497 -1.0742
v 0.875 0.7366 -1
v 0.5777 0.7417 -1.3993
v 0.301 0.7352 -1.4854
v 0.6867 -0.0005 -0.5879
v 0.6854 -0.0041 -0.3069
v 0.684 -0.0054 -0.0145
v 0.6825 -0.0042 0.2783
v 0.6809 -0.0008 0.5601
v 0.6793 0.0062 0.8203
v 0.6779 0.0139 1.0485
v 0.875 0 1
v 0.5706 0 1.372
v 0.2892 0 1.4574
v -0.0034 0 1.4862
v -0.2961 0 1.4574
v -0.5774 0 1.372
v -0.8368 0 1.2334
v -1.0641 0 1.0469
v -1.2506 0 0.8196
v -1.3892 0 0.5602
v -1.4746 0 0.2788
v -1.5034 0 -0.0138
v -1.4746 0 -0.3064
v -1.3892 0 -0.5878
v -1.2506 0 -0.8472
v -1.0641 0 -1.0745
v -0.8368 0 -1.261
v -0.5774 0 -1.3996
v -0.2961 0 -1.485
v -0.0034 0 -1.5138
v 0.2892 0 -1.485
v 0.5706 0 -1.3996
v 0.8676 0 -1
v 0.6886 0.013 -1.0729
v 0.6878 0.0052 -0.8465
# 167 vertices

vn 0.0100586 -0.0222329 -0.0099749
vn 0.0284901 -0.0340221 -0.0323923
vn 0.0326329 -0.0650353 -0.00364568
vn 0.00337703 -0.097935 -0.00125507
vn 0.0313745 -0.0934011 0.00033384
vn 0.00349825 -0.139684 -0.00131269
vn 0.0333864 -0.117773 0.000350019
vn 0.00458665 -0.169359 -0.000240899
vn 0.0341354 -0.129497 0.000198521
vn 0.00510664 -0.176071 -0.000138347
vn 0.0333087 -0.12794 -0.000506002
vn 0.00451133 -0.161939 9.73992e-05
vn 0.0307308 -0.100026 -0.0101492
vn 0.0031231 -0.13765 0.000238132
vn 0.026703 -0.0789274 0.0104156
vn 0.00210066 -0.123497 0.000323816
vn 0.00603344 -0.0626394 0.0330321
vn 0.0423752 -0.0204301 -0.0142306
vn 0.0116837 0.00635599 -0.0775526
vn 0.00186108 0.0111269 -0.0880293
vn -0.0144243 0.0119241 -0.0883158
vn -0.0214058 0.0171458 -0.100376
vn -0.0323947 0.012929 -0.086089
vn -0.0409225 0.017491 -0.0950354
vn -0.0486169 0.0129845 -0.0782341
vn -0.0586919 0.0175114 -0.085257
vn -0.0629576 0.0129948 -0.0672561
vn -0.0742038 0.0175217 -0.0721859
vn -0.0748604 0.0129962 -0.0536868
vn -0.0868498 0.0175133 -0.0563188
vn -0.0838965 0.0129928 -0.0380454
vn -0.0961766 0.0175103 -0.0382944
vn -0.0897157 0.0129896 -0.0209499
vn -0.1018 0.0175184 -0.0187932
vn -0.0920837 0.0129889 -0.00304589
vn -0.103512 0.0175077 0.00142605
vn -0.0909006 0.012989 0.0149852
vn -0.101237 0.0175168 0.0216014
vn -0.0862239 0.0129864 0.0324186
vn -0.0950804 0.0175033 0.0409219
vn -0.0782503 0.0129888 0.0486255
vn -0.085271 0.0175189 0.0587034
vn -0.0672497 0.0129951 0.0629508
vn -0.0721752 0.0175183 0.0741929
vn -0.0536893 0.0129927 0.0748629
vn -0.0563282 0.0175131 0.0868593
vn -0.0380471 0.012996 0.0839069
vn -0.0382863 0.0175076 0.0961714
vn -0.0209397 0.012989 0.0897017
vn -0.0187898 0.0174948 0.101787
vn -0.00304543 0.0129833 0.0920727
vn 0.00142621 0.0174963 0.103509
vn 0.0149722 0.0129869 0.0909
vn 0.0215884 0.0175052 0.101246
vn 0.0628918 0.0132049 0.0899772
vn 0.0859146 0.0198164 0.0997478
vn 0.0529128 0.00738786 0.0210817
vn 0.0338181 -0.00379302 -0.0608936
vn 0.0686708 -0.0224183 -0.0310552
vn 0.0813271 -0.0363633 -0.00418325
vn 0.0876235 -0.0408788 3.19495e-05
vn 0.0898837 -0.0424869 0.000482463
vn 0.0886547 -0.0422401 0.000170174
vn 0.0841097 -0.0403325 -0.000201281
vn 0.0763686 -0.0178323 0.0229454
vn 0.0354063 -0.00706492 0.0673938
vn 0.0491426 0.00115431 0.0039547
vn 0.0642083 0.0118383 -0.0719199
vn 0.0641487 0.0186393 -0.094143
vn 0.0252501 0.0131817 -0.0893811
vn 0.0202266 0.0175657 -0.101697
vn 0.00309524 0.00876482 -0.0943497
vn -0.0143754 0.00742976 -0.0920665
vn -0.0319223 0.00819899 -0.0864582
vn -0.0480858 0.00853294 -0.0784241
vn -0.0628237 0.00834199 -0.0672366
vn -0.0746628 0.00789366 -0.0546288
vn -0.083598 0.00864572 -0.0385448
vn -0.0894614 0.00848438 -0.0214149
vn -0.0918812 0.00809482 -0.0035847
vn -0.0908474 0.00762156 0.0144398
vn -0.086292 0.00699049 0.0318797
vn -0.0783188 0.00626026 0.0480511
vn -0.0674662 0.0054196 0.0624685
vn -0.0541576 0.00445293 0.0748395
vn -0.0386658 0.00353754 0.0841312
vn -0.0215591 0.00281403 0.0903213
vn -0.00351044 0.00217387 0.0926754
vn 0.0146002 0.00155892 0.0919822
vn 0.0646138 0.00198151 0.0905499
vn 0.0534794 0.00224856 0.0213145
vn 0.0320108 0.00144677 -0.0645628
vn 0.0700467 0.000259664 -0.0454797
vn 0.0835679 -5.5348e-05 -0.00716157
vn 0.0901134 -0.000145101 -0.000774627
vn 0.0922338 -0.000204748 0.00027187
vn 0.0908515 -0.000230269 0.000391968
vn 0.0858771 -0.000260021 0.000369433
vn 0.0781789 -0.00230323 0.0363102
vn 0.0344305 -0.00356443 0.0710545
vn 0.0504373 -0.00177029 0.00476005
vn 0.0694644 0.00306982 -0.0736047
vn 0.026757 0.00609397 -0.0887266
vn 0.00849736 0.00335256 -0.161253
vn -0.0226036 0.00363895 -0.172556
vn -0.0549005 0.00431636 -0.167771
vn -0.0868943 0.00494972 -0.152808
vn -0.115647 0.00542787 -0.131401
vn -0.138802 0.00572272 -0.107613
vn -0.156426 0.00580599 -0.0801243
vn -0.169407 0.00569861 -0.0466744
vn -0.175177 0.0053898 -0.0126696
vn -0.174196 0.0048936 0.0216917
vn -0.166824 0.00423275 0.0554108
vn -0.152782 0.00342485 0.086873
vn -0.132715 0.00250399 0.115036
vn -0.107953 0.00150565 0.139636
vn -0.07881 0.000463136 0.157985
vn -0.0464793 -0.000566265 0.16977
vn -0.0124352 -0.00154309 0.174717
vn 0.0218933 -0.00245589 0.174099
vn 0.0943879 -0.0043274 0.173048
vn 0.132641 -0.00286129 0.0895763
vn 0.0434666 0.00170845 -0.103149
vn 0.126906 0.0284295 -0.0748818
vn 0.155204 0.0466636 -0.0125953
vn 0.16908 0.0525515 -0.00164294
vn 0.174897 0.0546154 0.000627885
vn 0.174053 0.0543804 0.0013008
vn 0.166434 0.0520138 0.00160825
vn 0.152326 0.0469134 0.0471131
vn 0.0889452 0.0187522 0.102201
vn 0.057753 0.0016423 0.0355882
vn 0.157121 -0.000727846 -0.139132
vn 0.0598328 0.00136664 -0.16602
vn 0.107428 0.0404575 -0.0264809
vn 0.184932 0.0748796 -0.00508569
vn 0.0770654 -0.698039 -4.3596e-05
vn 0.17858 -0.108888 0.000588584
vn 0.129436 0.0233513 -5.154e-05
vn 0.169769 0.0624694 -0.000772313
vn 0.0599496 -0.102078 -0.0431641
vn 0.0640709 -0.0405128 -0.0339003
vn 0.111145 -0.0491116 0.0999727
vn 0.0643618 -0.0167962 0.183211
vn 0.00997506 -0.529071 0.08383
vn -0.0238758 -0.136052 0.180946
vn -0.0419434 -0.0495809 0.131128
vn -0.0965158 -0.0156054 0.171758
vn -0.0677017 -0.154905 0.0809353
vn -0.149293 -0.0417557 0.115106
vn -0.123881 -0.0335252 0.0640196
vn -0.189515 -0.0111516 0.0529667
vn -0.0778365 -0.79337 0.00670947
vn -0.18019 -0.201008 -0.0247801
vn -0.131671 -0.060037 -0.0423312
vn -0.169888 -0.0165737 -0.0978488
vn -0.0809209 -0.154659 -0.066966
vn -0.115015 -0.0419336 -0.149185
vn -0.0640926 -0.0340874 -0.123632
vn -0.0519915 -0.0116093 -0.190473
vn -0.00649161 -0.529595 -0.0846786
vn 0.0248026 -0.137165 -0.181018
vn 0.0735252 -0.0637288 -0.133675
vn 0.151285 -0.0296923 -0.109295
vn 0.0273526 -0.122859 0.022677
vn 0.138537 0.00782206 0.0574006
# 167 normals (1 per vertex)

vt 117.81 41.2334 0
vt 117.81 35.3429 0
vt 123.7 35.3429 0
vt 123.7 41.2334 0
vt 129.591 35.3429 0
vt 129.591 41.2334 0
vt 135.481 35.3429 0
vt 135.481 41.2334 0
vt 141.372 35.3429 0
vt 141.372 41.2334 0
vt 147.262 35.3429 0
vt 147.262 41.2334 0
vt 153.153 35.3429 0
vt 153.153 41.2334 0
vt 159.043 35.3429 0
vt 159.043 41.2334 0
vt 164.934 35.3429 0
vt 164.934 41.2334 0
vt 0 35.3429 0
vt 0 29.4524 0
vt 5.8905 29.4524 0
vt 5.8905 35.3429 0
vt 11.781 29.4524 0
vt 11.781 35.3429 0
vt 17.6715 29.4524 0
vt 17.6715 35.3429 0
vt 23.5619 29.4524 0
vt 23.5619 35.3429 0
vt 29.4524 29.4524 0
vt 29.4524 35.3429 0
vt 35.3429 29.4524 0
vt 35.3429 35.3429 0
vt 41.2334 29.4524 0
vt 41.2334 35.3429 0
vt 47.1239 29.4524 0
vt 47.1239 35.3429 0
vt 53.0144 29.4524 0
vt 53.0144 35.3429 0
vt 58.9049 29.4524 0
vt 58.9049 35.3429 0
vt 64.7953 29.4524 0
vt 64.7953 35.3429 0
vt 70.6858 29.4524 0
vt 70.6858 35.3429 0
vt 76.5763 29.4524 0
vt 76.5763 35.3429 0
vt 82.4668 29.4524 0
vt 82.4668 35.3429 0
vt 88.3573 29.4524 0
vt 88.3573 35.3429 0
vt 94.2478 29.4524 0
vt 94.2478 35.3429 0
vt 100.138 29.4524 0
vt 100.138 35.3429 0
vt 106.029 29.4524 0
vt 106.029 35.3429 0
vt 111.919 29.4524 0
vt 111.919 35.3429 0
vt 117.81 29.4524 0
vt 123.7 29.4524 0
vt 129.591 29.4524 0
vt 135.481 29.4524 0
vt 141.372 29.4524 0
vt 147.262 29.4524 0
vt 153.153 29.4524 0
vt 159.043 29.4524 0
vt 164.934 29.4524 0
vt 170.824 29.4524 0
vt 170.824 35.3429 0
vt 176.715 29.4524 0
vt 176.715 35.3429 0
vt 182.605 29.4524 0
vt 182.605 35.3429 0
vt 188.496 29.4524 0
vt 188.496 35.3429 0
vt 0 23.5619 0
vt 5.8905 23.5619 0
vt 11.781 23.5619 0
vt 17.6715 23.5619 0
vt 23.5619 23.5619 0
vt 29.4524 23.5619 0
vt 35.3429 23.5619 0
vt 41.2334 23.5619 0
vt 47.1239 23.5619 0
vt 53.0144 23.5619 0
vt 58.9049 23.5619 0
vt 64.7953 23.5619 0
vt 70.6858 23.5619 0
vt 76.5763 23.5619 0
vt 82.4668 23.5619 0
vt 88.3573 23.5619 0
vt 94.2478 23.5619 0
vt 100.138 23.5619 0
vt 106.029 23.5619 0
vt 111.919 23.5619 0
vt 117.81 23.5619 0
vt 123.7 23.5619 0
vt 129.591 23.5619 0
vt 135.481 23.5619 0
vt 141.372 23.5619 0
vt 147.262 23.5619 0
vt 153.153 23.5619 0
vt 159.043 23.5619 0
vt 164.934 23.5619 0
vt 170.824 23.5619 0
vt 176.715 23.5619 0
vt 182.605 23.5619 0
vt 188.496 23.5619 0
vt 0 17.6715 0
vt 5.8905 17.6715 0
vt 11.781 17.6715 0
vt 17.6715 17.6715 0
vt 23.5619 17.6715 0
vt 29.4524 17.6715 0
vt 35.3429 17.6715 0
vt 41.2334 17.6715 0
vt 47.1239 17.6715 0
vt 53.0144 17.6715 0
vt 58.9049 17.6715 0
vt 64.7953 17.6715 0
vt 70.6858 17.6715 0
vt 76.5763 17.6715 0
vt 82.4668 17.6715 0
vt 88.3573 17.6715 0
vt 94.2478 17.6715 0
vt 100.138 17.6715 0
vt 106.029 17.6715 0
vt 111.919 17.6715 0
vt 117.81 17.6715 0
vt 123.7 17.6715 0
vt 129.591 17.6715 0
vt 135.481 17.6715 0
vt 141.372 17.6715 0
vt 147.262 17.6715 0
vt 153.153 17.6715 0
vt 159.043 17.6715 0
vt 164.934 17.6715 0
vt 170.824 17.6715 0
vt 176.715 17.6715 0
vt 182.605 17.6715 0
vt 188.496 17.6715 0
vt 57.7164 18.5195 0
vt 59.4236 24.1473 0
vt 60 30 0
vt 59.4236 35.8527 0
vt 57.7164 41.4805 0
vt 54.9441 46.6671 0
vt 51.2132 51.2132 0
vt 46.6671 54.9441 0
vt 41.4805 57.7164 0
vt 35.8527 59.4236 0
vt 30 60 0
vt 24.1473 59.4236 0
vt 18.5195 57.7164 0
vt 13.3329 54.9441 0
vt 8.7868 51.2132 0
vt 5.0559 46.6671 0
vt 2.2836 41.4805 0
vt 0.5764 35.8527 0
vt 0 30 0
vt 0.5764 24.1473 0
vt 2.2836 18.5195 0
vt 5.0559 13.3329 0
vt 8.7868 8.7868 0
vt 13.3329 5.0559 0
vt 18.5195 2.2836 0
vt 24.1473 0.5764 0
vt 30 0 0
vt 35.8527 0.5764 0
vt 41.4805 2.2836 0
vt 46.6671 5.0559 0
vt 51.2132 8.7868 0
vt 54.9441 13.3329 0
vt 147.262 15 0
vt 141.372 15 0
vt 141.372 0 0
vt 147.262 0 0
vt 153.153 15 0
vt 153.153 0 0
vt 159.043 15 0
vt 159.043 0 0
vt 164.934 15 0
vt 164.934 0 0
vt 170.824 15 0
vt 170.824 0 0
vt 176.715 15 0
vt 176.715 0 0
vt 182.605 15 0
vt 182.605 0 0
vt 188.495 15 0
vt 188.495 0 0
vt 5.8905 15 0
vt -0 15 0
vt -0 0 0
vt 5.8905 0 0
vt 11.781 15 0
vt 11.781 0 0
vt 17.6715 15 0
vt 17.6715 0 0
vt 23.5619 15 0
vt 23.5619 0 0
vt 29.4524 15 0
vt 29.4524 0 0
vt 35.3429 15 0
vt 35.3429 0 0
vt 41.2334 15 0
vt 41.2334 0 0
vt 47.1239 15 0
vt 47.1239 0 0
vt 53.0144 15 0
vt 53.0144 0 0
vt 58.9049 15 0
vt 58.9049 0 0
vt 64.7954 15 0
vt 64.7954 0 0
vt 70.6859 15 0
vt 70.6859 0 0
vt 76.5763 15 0
vt 76.5763 0 0
vt 82.4668 15 0
vt 82.4668 0 0
vt 88.3573 15 0
vt 88.3573 0 0
vt 94.2478 15 0
vt 94.2478 0 0
vt 100.138 15 0
vt 100.138 0 0
vt 106.029 15 0
vt 106.029 0 0
vt 111.919 15 0
vt 111.919 0 0
vt 117.81 15 0
vt 117.81 0 0
vt 123.7 15 0
vt 123.7 0 0
vt 129.591 15 0
vt 129.591 0 0
vt 135.481 15 0
vt 135.481 0 0
# 239 texture coords

f 1/1/1 2/2/2 3/3/3
f 3/3/3 4/4/4 1/1/1
f 4/4/4 3/3/3 5/5/5
f 5/5/5 6/6/6 4/4/4
f 6/6/6 5/5/5 7/7/7
f 7/7/7 8/8/8 6/6/6
f 8/8/8 7/7/7 9/9/9
f 9/9/9 10/10/10 8/8/8
f 10/10/10 9/9/9 11/11/11
f 11/11/11 12/12/12 10/10/10
f 12/12/12 11/11/11 13/13/13
f 13/13/13 14/14/14 12/12/12
f 14/14/14 13/13/13 15/15/15
f 15/15/15 16/16/16 14/14/14
f 16/16/16 15/15/15 17/17/17
f 17/17/17 18/18/18 16/16/16
f 19/19/19 20/20/20 21/21/21
f 21/21/21 22/22/22 19/19/19
f 22/22/22 21/21/21 23/23/23
f 23/23/23 24/24/24 22/22/22
f 24/24/24 23/23/23 25/25/25
f 25/25/25 26/26/26 24/24/24
f 26/26/26 25/25/25 27/27/27
f 27/27/27 28/28/28 26/26/26
f 28/28/28 27/27/27 29/29/29
f 29/29/29 30/30/30 28/28/28
f 30/30/30 29/29/29 31/31/31
f 31/31/31 32/32/32 30/30/30
f 32/32/32 31/31/31 33/33/33
f 33/33/33 34/34/34 32/32/32
f 34/34/34 33/33/33 35/35/35
f 35/35/35 36/36/36 34/34/34
f 36/36/36 35/35/35 37/37/37
f 37/37/37 38/38/38 36/36/36
f 38/38/38 37/37/37 39/39/39
f 39/39/39 40/40/40 38/38/38
f 40/40/40 39/39/39 41/41/41
f 41/41/41 42/42/42 40/40/40
f 42/42/42 41/41/41 43/43/43
f 43/43/43 44/44/44 42/42/42
f 44/44/44 43/43/43 45/45/45
f 45/45/45 46/46/46 44/44/44
f 46/46/46 45/45/45 47/47/47
f 47/47/47 48/48/48 46/46/46
f 48/48/48 47/47/47 49/49/49
f 49/49/49 50/50/50 48/48/48
f 50/50/50 49/49/49 51/51/51
f 51/51/51 52/52/52 50/50/50
f 52/52/52 51/51/51 53/53/53
f 53/53/53 54/54/54 52/52/52
f 54/54/54 53/53/53 55/55/55
f 55/55/55 56/56/56 54/54/54
f 56/56/56 55/55/55 57/57/57
f 57/57/57 1/58/1 56/56/56
f 1/58/1 57/57/57 58/59/58
f 58/59/58 2/2/2 1/58/1
f 2/2/2 58/59/58 59/60/59
f 59/60/59 3/3/3 2/2/2
f 3/3/3 59/60/59 60/61/60
f 60/61/60 5/5/5 3/3/3
f 5/5/5 60/61/60 61/62/61
f 61/62/61 7/7/7 5/5/5
f 7/7/7 61/62/61 62/63/62
f 62/63/62 9/9/9 7/7/7
f 9/9/9 62/63/62 63/64/63
f 63/64/63 11/11/11 9/9/9
f 11/11/11 63/64/63 64/65/64
f 64/65/64 13/13/13 11/11/11
f 13/13/13 64/65/64 65/66/65
f 65/66/65 15/15/15 13/13/13
f 15/15/15 65/66/65 66/67/66
f 66/67/66 17/17/17 15/15/15
f 17/17/17 66/67/66 67/68/67
f 67/68/67 18/69/18 17/17/17
f 18/69/18 67/68/67 68/70/68
f 68/70/68 69/71/69 18/69/18
f 69/71/69 68/70/68 70/72/70
f 70/72/70 71/73/71 69/71/69
f 71/73/71 70/72/70 20/74/20
f 20/74/20 19/75/19 71/73/71
f 20/20/20 72/76/72 73/77/73
f 73/77/73 21/21/21 20/20/20
f 21/21/21 73/77/73 74/78/74
f 74/78/74 23/23/23 21/21/21
f 23/23/23 74/78/74 75/79/75
f 75/79/75 25/25/25 23/23/23
f 25/25/25 75/79/75 76/80/76
f 76/80/76 27/27/27 25/25/25
f 27/27/27 76/80/76 77/81/77
f 77/81/77 29/29/29 27/27/27
f 29/29/29 77/81/77 78/82/78
f 78/82/78 31/31/31 29/29/29
f 31/31/31 78/82/78 79/83/79
f 79/83/79 33/33/33 31/31/31
f 33/33/33 79/83/79 80/84/80
f 80/84/80 35/35/35 33/33/33
f 35/35/35 80/84/80 81/85/81
f 81/85/81 37/37/37 35/35/35
f 37/37/37 81/85/81 82/86/82
f 82/86/82 39/39/39 37/37/37
f 39/39/39 82/86/82 83/87/83
f 83/87/83 41/41/41 39/39/39
f 41/41/41 83/87/83 84/88/84
f 84/88/84 43/43/43 41/41/41
f 43/43/43 84/88/84 85/89/85
f 85/89/85 45/45/45 43/43/43
f 45/45/45 85/89/85 86/90/86
f 86/90/86 47/47/47 45/45/45
f 47/47/47 86/90/86 87/91/87
f 87/91/87 49/49/49 47/47/47
f 49/49/49 87/91/87 88/92/88
f 88/92/88 51/51/51 49/49/49
f 51/51/51 88/92/88 89/93/89
f 89/93/89 53/53/53 51/51/51
f 53/53/53 89/93/89 90/94/90
f 90/94/90 55/55/55 53/53/53
f 55/55/55 90/94/90 91/95/91
f 91/95/91 57/57/57 55/55/55
f 57/57/57 91/95/91 92/96/92
f 92/96/92 58/59/58 57/57/57
f 58/59/58 92/96/92 93/97/93
f 93/97/93 59/60/59 58/59/58
f 59/60/59 93/97/93 94/98/94
f 94/98/94 60/61/60 59/60/59
f 60/61/60 94/98/94 95/99/95
f 95/99/95 61/62/61 60/61/60
f 61/62/61 95/99/95 96/100/96
f 96/100/96 62/63/62 61/62/61
f 62/63/62 96/100/96 97/101/97
f 97/101/97 63/64/63 62/63/62
f 63/64/63 97/101/97 98/102/98
f 98/102/98 64/65/64 63/64/63
f 64/65/64 98/102/98 99/103/99
f 99/103/99 65/66/65 64/65/64
f 65/66/65 99/103/99 100/104/100
f 100/104/100 66/67/66 65/66/65
f 66/67/66 100/104/100 101/105/101
f 101/105/101 67/68/67 66/67/66
f 67/68/67 101/105/101 102/106/102
f 102/106/102 68/70/68 67/68/67
f 68/70/68 102/106/102 103/107/103
f 103/107/103 70/72/70 68/70/68
f 70/72/70 103/107/103 72/108/72
f 72/108/72 20/74/20 70/72/70
f 72/76/72 104/109/104 105/110/105
f 105/110/105 73/77/73 72/76/72
f 73/77/73 105/110/105 106/111/106
f 106/111/106 74/78/74 73/77/73
f 74/78/74 106/111/106 107/112/107
f 107/112/107 75/79/75 74/78/74
f 75/79/75 107/112/107 108/113/108
f 108/113/108 76/80/76 75/79/75
f 76/80/76 108/113/108 109/114/109
f 109/114/109 77/81/77 76/80/76
f 77/81/77 109/114/109 110/115/110
f 110/115/110 78/82/78 77/81/77
f 78/82/78 110/115/110 111/116/111
f 111/116/111 79/83/79 78/82/78
f 79/83/79 111/116/111 112/117/112
f 112/117/112 80/84/80 79/83/79
f 80/84/80 112/117/112 113/118/113
f 113/118/113 81/85/81 80/84/80
f 81/85/81 113/118/113 114/119/114
f 114/119/114 82/86/82 81/85/81
f 82/86/82 114/119/114 115/120/115
f 115/120/115 83/87/83 82/86/82
f 83/87/83 115/120/115 116/121/116
f 116/121/116 84/88/84 83/87/83
f 84/88/84 116/121/116 117/122/117
f 117/122/117 85/89/85 84/88/84
f 85/89/85 117/122/117 118/123/118
f 118/123/118 86/90/86 85/89/85
f 86/90/86 118/123/118 119/124/119
f 119/124/119 87/91/87 86/90/86
f 87/91/87 119/124/119 120/125/120
f 120/125/120 88/92/88 87/91/87
f 88/92/88 120/125/120 121/126/121
f 121/126/121 89/93/89 88/92/88
f 89/93/89 121/126/121 122/127/122
f 122/127/122 90/94/90 89/93/89
f 90/94/90 122/127/122 123/128/123
f 123/128/123 91/95/91 90/94/90
f 91/95/91 123/128/123 124/129/124
f 124/129/124 92/96/92 91/95/91
f 92/96/92 124/129/124 125/130/125
f 125/130/125 93/97/93 92/96/92
f 93/97/93 125/130/125 126/131/126
f 126/131/126 94/98/94 93/97/93
f 94/98/94 126/131/126 127/132/127
f 127/132/127 95/99/95 94/98/94
f 95/99/95 127/132/127 128/133/128
f 128/133/128 96/100/96 95/99/95
f 96/100/96 128/133/128 129/134/129
f 129/134/129 97/101/97 96/100/96
f 97/101/97 129/134/129 130/135/130
f 130/135/130 98/102/98 97/101/97
f 98/102/98 130/135/130 131/136/131
f 131/136/131 99/103/99 98/102/98
f 99/103/99 131/136/131 132/137/132
f 132/137/132 100/104/100 99/103/99
f 100/104/100 132/137/132 133/138/133
f 133/138/133 101/105/101 100/104/100
f 101/105/101 133/138/133 134/139/134
f 134/139/134 102/106/102 101/105/101
f 102/106/102 134/139/134 135/140/135
f 135/140/135 103/107/103 102/106/102
f 103/107/103 135/140/135 104/141/104
f 104/141/104 72/108/72 103/107/103
f 136/142/136 137/143/137 138/144/138
f 138/144/138 139/145/139 140/146/140
f 140/146/140 141/147/141 142/148/142
f 138/144/138 140/146/140 142/148/142
f 142/148/142 143/149/143 144/150/144
f 144/150/144 145/151/145 146/152/146
f 142/148/142 144/150/144 146/152/146
f 138/144/138 142/148/142 146/152/146
f 146/152/146 147/153/147 148/154/148
f 148/154/148 149/155/149 150/156/150
f 146/152/146 148/154/148 150/156/150
f 150/156/150 151/157/151 152/158/152
f 152/158/152 153/159/153 154/160/154
f 150/156/150 152/158/152 154/160/154
f 146/152/146 150/156/150 154/160/154
f 138/144/138 146/152/146 154/160/154
f 154/160/154 155/161/155 156/162/156
f 156/162/156 157/163/157 158/164/158
f 154/160/154 156/162/156 158/164/158
f 158/164/158 159/165/159 160/166/160
f 160/166/160 161/167/161 162/168/162
f 158/164/158 160/166/160 162/168/162
f 154/160/154 158/164/158 162/168/162
f 138/144/138 154/160/154 162/168/162
f 162/168/162 163/169/163 164/170/164
f 164/170/164 165/171/165 166/172/166
f 162/168/162 164/170/164 166/172/166
f 138/144/138 162/168/162 166/172/166
f 136/142/136 138/144/138 166/172/166
f 136/142/136 166/172/166 167/173/167
f 129/174/129 128/175/128 138/176/138
f 138/176/138 137/177/137 129/174/129
f 130/178/130 129/174/129 137/177/137
f 137/177/137 136/179/136 130/178/130
f 131/180/131 130/178/130 136/179/136
f 136/179/136 167/181/167 131/180/131
f 132/182/132 131/180/131 167/181/167
f 167/181/167 166/183/166 132/182/132
f 133/184/133 132/182/132 166/183/166
f 166/183/166 165/185/165 133/184/133
f 134/186/134 133/184/133 165/185/165
f 165/185/165 164/187/164 134/186/134
f 135/188/135 134/186/134 164/187/164
f 164/187/164 163/189/163 135/188/135
f 104/190/104 135/188/135 163/189/163
f 163/189/163 162/191/162 104/190/104
f 105/192/105 104/193/104 162/194/162
f 162/194/162 161/195/161 105/192/105
f 106/196/106 105/192/105 161/195/161
f 161/195/161 160/197/160 106/196/106
f 107/198/107 106/196/106 160/197/160
f 160/197/160 159/199/159 107/198/107
f 108/200/108 107/198/107 159/199/159
f 159/199/159 158/201/158 108/200/108
f 109/202/109 108/200/108 158/201/158
f 158/201/158 157/203/157 109/202/109
f 110/204/110 109/202/109 157/203/157
f 157/203/157 156/205/156 110/204/110
f 111/206/111 110/204/110 156/205/156
f 156/205/156 155/207/155 111/206/111
f 112/208/112 111/206/111 155/207/155
f 155/207/155 154/209/154 112/208/112
f 113/210/113 112/208/112 154/209/154
f 154/209/154 153/211/153 113/210/113
f 114/212/114 113/210/113 153/211/153
f 153/211/153 152/213/152 114/212/114
f 115/214/115 114/212/114 152/213/152
f 152/213/152 151/215/151 115/214/115
f 116/216/116 115/214/115 151/215/151
f 151/215/151 150/217/150 116/216/116
f 117/218/117 116/216/116 150/217/150
f 150/217/150 149/219/149 117/218/117
f 118/220/118 117/218/117 149/219/149
f 149/219/149 148/221/148 118/220/118
f 119/222/119 118/220/118 148/221/148
f 148/221/148 147/223/147 119/222/119
f 120/224/120 119/222/119 147/223/147
f 147/223/147 146/225/146 120/224/120
f 121/226/121 120/224/120 146/225/146
f 146/225/146 145/227/145 121/226/121
f 122/228/122 121/226/121 145/227/145
f 145/227/145 144/229/144 122/228/122
f 123/230/123 122/228/122 144/229/144
f 144/229/144 143/231/143 123/230/123
f 124/232/124 123/230/123 143/231/143
f 143/231/143 142/233/142 124/232/124
f 125/234/125 124/232/124 142/233/142
f 142/233/142 141/235/141 125/234/125
f 126/236/126 125/234/125 141/235/141
f 141/235/141 140/237/140 126/236/126
f 127/238/127 126/236/126 140/237/140
f 140/237/140 139/239/139 127/238/127
f 128/175/128 127/238/127 139/239/139
f 139/239/139 138/176/138 128/175/128
# 302 faces
