v 0.0235 2.0116 -1.2665
v 0.0235 1.7774 -1.3572
v -0.2412 1.7774 -1.3312
v -0.2235 2.0116 -1.2422
v -0.4959 1.7774 -1.2539
v -0.4611 2.0116 -1.1701
v -0.7305 1.7774 -1.1285
v -0.6801 2.0116 -1.053
v -0.9362 1.7774 -0.9597
v -0.872 2.0116 -0.8955
v -1.105 1.7774 -0.754
v -1.0295 2.0116 -0.7036
v -1.2304 1.7774 -0.5194
v -1.1466 2.0116 -0.4847
v -1.3076 1.7774 -0.2648
v -1.2186 2.0116 -0.2471
v -1.3337 1.7774 0
v -1.243 2.0116 0
v -1.3076 1.7774 0.2648
v -1.2186 2.0116 0.2471
v -1.2304 1.7774 0.5194
v -1.1466 2.0116 0.4847
v -1.105 1.7774 0.754
v -1.0295 2.0116 0.7036
v -0.9362 1.7774 0.9597
v -0.872 2.0116 0.8955
v -0.7305 1.7774 1.1285
v -0.6801 2.0116 1.0531
v -0.4959 1.7774 1.2539
v -0.4611 2.0116 1.1701
v -0.2412 1.7774 1.3312
v -0.2235 2.0116 1.2422
v 0.0235 1.7774 1.3572
v 0.0235 2.0116 1.2665
v 0.2883 1.7774 1.3312
v 0.2706 2.0116 1.2422
v 0.5429 1.7774 1.2539
v 0.5207 2.0116 1.1116
v 0.8398 1.5145 0.9899
v 0.7251 2.0116 0.8955
v 0.9028 1.5 0.754
v 0.8826 2.0116 0.7036
v 1.0283 1.5 0.5194
v 0.9996 2.0116 0.4847
v 1.1055 1.5 0.2648
v 1.0717 2.0116 0.2471
v 1.1199 1.5 -0
v 1.096 2.0116 -0
v 1.1055 1.5 -0.2648
v 1.0717 2.0116 -0.2471
v 1.0283 1.5 -0.5194
v 0.9996 2.0116 -0.4847
v 0.9028 1.5 -0.754
v 0.8826 2.0116 -0.7036
v 0.8398 1.5145 -0.9899
v 0.7251 2.0116 -0.8955
v 0.5207 2.0116 -1.1116
v 0.5429 1.7774 -1.2539
v 0.2883 1.7774 -1.3312
v 0.2706 2.0116 -1.2422
v 0.0235 1.5289 -1.4266
v -0.2548 1.5289 -1.3992
v -0.5224 1.5289 -1.318
v -0.769 1.5289 -1.1862
v -0.9852 1.5289 -1.0087
v -1.1626 1.5289 -0.7926
v -1.2945 1.5289 -0.5459
v -1.3756 1.5289 -0.2783
v -1.4031 1.5289 0
v -1.3756 1.5289 0.2783
v -1.2945 1.5289 0.5459
v -1.1626 1.5289 0.7926
v -0.9852 1.5289 1.0087
v -0.769 1.5289 1.1862
v -0.5224 1.5289 1.318
v -0.2548 1.5289 1.3992
v 0.0235 1.5289 1.4266
v 0.3018 1.5289 1.3992
v 0.5695 1.5289 1.318
v 0.5695 1.5289 -1.318
v 0.3018 1.5289 -1.3992
# 81 vertices

vn -0.00202973 0.0229445 -0.059237
vn -0.000524597 0.0249061 -0.0736425
vn -0.0127095 0.0252322 -0.0747838
vn -0.0177967 0.0313673 -0.0826426
vn -0.0275463 0.0263143 -0.0726256
vn -0.0337419 0.0317314 -0.0781682
vn -0.0412143 0.0263754 -0.0659528
vn -0.0483529 0.0317604 -0.0701202
vn -0.0532852 0.0263781 -0.056653
vn -0.0610965 0.0317596 -0.0593385
vn -0.0633129 0.0263813 -0.0451687
vn -0.0714885 0.0317491 -0.0462829
vn -0.0708984 0.0263702 -0.0319427
vn -0.079146 0.0317375 -0.0314367
vn -0.0757773 0.0263716 -0.0174993
vn -0.0837701 0.0317445 -0.0153963
vn -0.0777394 0.0263755 -0.0023795
vn -0.0851657 0.0317428 0.00124437
vn -0.0767083 0.026371 0.0128292
vn -0.0832841 0.0317433 0.0178288
vn -0.0727286 0.0263695 0.0275439
vn -0.0781948 0.0317395 0.0337333
vn -0.0659491 0.0263693 0.0412087
vn -0.0701111 0.0317558 0.048351
vn -0.0566557 0.0263796 0.0532891
vn -0.0593472 0.0317554 0.0610978
vn -0.04517 0.0263752 0.063309
vn -0.0462833 0.0317401 0.071495
vn -0.031951 0.0263739 0.0709114
vn -0.0314473 0.0317514 0.079166
vn -0.0175008 0.0263774 0.0757806
vn -0.015389 0.0317405 0.0837556
vn -0.00237852 0.0263701 0.077725
vn 0.00123689 0.0317375 0.0851531
vn 0.0128282 0.0263729 0.0767103
vn 0.0224031 0.0371037 0.0842606
vn 0.0543995 0.0384318 0.0792427
vn 0.0972163 0.0563707 0.10104
vn 0.126242 0.0519053 0.0906964
vn 0.150159 0.0469355 0.100845
vn 0.16233 0.034273 0.0917606
vn 0.164172 0.022498 0.0988002
vn 0.175479 0.0179634 0.0874529
vn 0.179759 0.0158662 0.074564
vn 0.189013 0.0147881 0.052771
vn 0.190819 0.0130687 0.0364854
vn 0.19606 0.0115027 0.0163058
vn 0.194788 0.0108398 0.00297957
vn 0.195643 0.0119742 -0.0187716
vn 0.19129 0.0133497 -0.0358618
vn 0.187707 0.0145768 -0.0588165
vn 0.180425 0.0151014 -0.0732553
vn 0.177951 0.0148161 -0.0764187
vn 0.168917 0.023318 -0.082169
vn 0.134969 0.0372765 -0.0848983
vn 0.168893 0.0591188 -0.132399
vn 0.106062 0.0534567 -0.103976
vn 0.0690496 0.0406483 -0.0847758
vn 0.0260513 0.0305366 -0.0772035
vn 0.022806 0.0338488 -0.0852213
vn 0.00975568 0.0302781 -0.0964464
vn -0.00789748 0.0290821 -0.0992935
vn -0.026679 0.0286859 -0.0967884
vn -0.0449007 0.0285528 -0.0900308
vn -0.0615524 0.0284978 -0.0796523
vn -0.0758915 0.0284815 -0.0661534
vn -0.0873311 0.028482 -0.0500819
vn -0.0954184 0.0284783 -0.0320844
vn -0.0998454 0.0284884 -0.0128567
vn -0.100435 0.0284843 0.00687206
vn -0.0971688 0.0284835 0.0263289
vn -0.0901576 0.0284802 0.0447839
vn -0.0796945 0.0284723 0.0615135
vn -0.0661675 0.0284782 0.0758786
vn -0.0500866 0.0284824 0.0873185
vn -0.0320943 0.0284851 0.0954225
vn -0.0128518 0.0284888 0.0998385
vn 0.00686545 0.0284866 0.100441
vn 0.0429029 0.0307387 0.0990063
vn 0.0727685 0.0380559 -0.0171518
vn 0.0396549 0.0316753 -0.0720336
# 81 normals (1 per vertex)

vt 0 47.1239 0
vt 0 41.2334 0
vt 5.8905 41.2334 0
vt 5.8905 47.1239 0
vt 11.781 41.2334 0
vt 11.781 47.1239 0
vt 17.6715 41.2334 0
vt 17.6715 47.1239 0
vt 23.5619 41.2334 0
vt 23.5619 47.1239 0
vt 29.4524 41.2334 0
vt 29.4524 47.1239 0
vt 35.3429 41.2334 0
vt 35.3429 47.1239 0
vt 41.2334 41.2334 0
vt 41.2334 47.1239 0
vt 47.1239 41.2334 0
vt 47.1239 47.1239 0
vt 53.0144 41.2334 0
vt 53.0144 47.1239 0
vt 58.9049 41.2334 0
vt 58.9049 47.1239 0
vt 64.7953 41.2334 0
vt 64.7953 47.1239 0
vt 70.6858 41.2334 0
vt 70.6858 47.1239 0
vt 76.5763 41.2334 0
vt 76.5763 47.1239 0
vt 82.4668 41.2334 0
vt 82.4668 47.1239 0
vt 88.3573 41.2334 0
vt 88.3573 47.1239 0
vt 94.2478 41.2334 0
vt 94.2478 47.1239 0
vt 100.138 41.2334 0
vt 100.138 47.1239 0
vt 106.029 41.2334 0
vt 106.029 47.1239 0
vt 111.919 41.2334 0
vt 117.81 41.2334 0
vt 117.81 47.1239 0
vt 111.919 47.1239 0
vt 123.7 41.2334 0
vt 123.7 47.1239 0
vt 129.591 41.2334 0
vt 129.591 47.1239 0
vt 135.481 41.2334 0
vt 135.481 47.1239 0
vt 141.372 41.2334 0
vt 141.372 47.1239 0
vt 147.262 41.2334 0
vt 147.262 47.1239 0
vt 153.153 41.2334 0
vt 153.153 47.1239 0
vt 159.043 41.2334 0
vt 159.043 47.1239 0
vt 164.934 41.2334 0
vt 164.934 47.1239 0
vt 170.824 41.2334 0
vt 170.824 47.1239 0
vt 176.715 41.2334 0
vt 176.715 47.1239 0
vt 182.605 41.2334 0
vt 182.605 47.1239 0
vt 188.496 41.2334 0
vt 188.496 47.1239 0
vt 0 35.3429 0
vt 5.8905 35.3429 0
vt 11.781 35.3429 0
vt 17.6715 35.3429 0
vt 23.5619 35.3429 0
vt 29.4524 35.3429 0
vt 35.3429 35.3429 0
vt 41.2334 35.3429 0
vt 47.1239 35.3429 0
vt 53.0144 35.3429 0
vt 58.9049 35.3429 0
vt 64.7953 35.3429 0
vt 70.6858 35.3429 0
vt 76.5763 35.3429 0
vt 82.4668 35.3429 0
vt 88.3573 35.3429 0
vt 94.2478 35.3429 0
vt 100.138 35.3429 0
vt 106.029 35.3429 0
vt 111.919 35.3429 0
vt 176.715 35.3429 0
vt 182.605 35.3429 0
vt 188.496 35.3429 0
# 89 texture coords

f 1/1/1 2/2/2 3/3/3
f 3/3/3 4/4/4 1/1/1
f 4/4/4 3/3/3 5/5/5
f 5/5/5 6/6/6 4/4/4
f 6/6/6 5/5/5 7/7/7
f 7/7/7 8/8/8 6/6/6
f 8/8/8 7/7/7 9/9/9
f 9/9/9 10/10/10 8/8/8
f 10/10/10 9/9/9 11/11/11
f 11/11/11 12/12/12 10/10/10
f 12/12/12 11/11/11 13/13/13
f 13/13/13 14/14/14 12/12/12
f 14/14/14 13/13/13 15/15/15
f 15/15/15 16/16/16 14/14/14
f 16/16/16 15/15/15 17/17/17
f 17/17/17 18/18/18 16/16/16
f 18/18/18 17/17/17 19/19/19
f 19/19/19 20/20/20 18/18/18
f 20/20/20 19/19/19 21/21/21
f 21/21/21 22/22/22 20/20/20
f 22/22/22 21/21/21 23/23/23
f 23/23/23 24/24/24 22/22/22
f 24/24/24 23/23/23 25/25/25
f 25/25/25 26/26/26 24/24/24
f 26/26/26 25/25/25 27/27/27
f 27/27/27 28/28/28 26/26/26
f 28/28/28 27/27/27 29/29/29
f 29/29/29 30/30/30 28/28/28
f 30/30/30 29/29/29 31/31/31
f 31/31/31 32/32/32 30/30/30
f 32/32/32 31/31/31 33/33/33
f 33/33/33 34/34/34 32/32/32
f 34/34/34 33/33/33 35/35/35
f 35/35/35 36/36/36 34/34/34
f 36/36/36 35/35/35 37/37/37
f 37/37/37 38/38/38 36/36/36
f 38/38/38 37/37/37 39/39/39
f 39/40/39 40/41/40 38/42/38
f 40/41/40 39/40/39 41/43/41
f 41/43/41 42/44/42 40/41/40
f 42/44/42 41/43/41 43/45/43
f 43/45/43 44/46/44 42/44/42
f 44/46/44 43/45/43 45/47/45
f 45/47/45 46/48/46 44/46/44
f 46/48/46 45/47/45 47/49/47
f 47/49/47 48/50/48 46/48/46
f 48/50/48 47/49/47 49/51/49
f 49/51/49 50/52/50 48/50/48
f 50/52/50 49/51/49 51/53/51
f 51/53/51 52/54/52 50/52/50
f 52/54/52 51/53/51 53/55/53
f 53/55/53 54/56/54 52/54/52
f 54/56/54 53/55/53 55/57/55
f 55/57/55 56/58/56 54/56/54
f 55/59/55 57/60/57 56/58/56
f 57/60/57 55/59/55 58/61/58
f 57/62/57 58/61/58 59/63/59
f 59/63/59 60/64/60 57/62/57
f 60/64/60 59/63/59 2/65/2
f 2/65/2 1/66/1 60/64/60
f 2/2/2 61/67/61 62/68/62
f 62/68/62 3/3/3 2/2/2
f 3/3/3 62/68/62 63/69/63
f 63/69/63 5/5/5 3/3/3
f 5/5/5 63/69/63 64/70/64
f 64/70/64 7/7/7 5/5/5
f 7/7/7 64/70/64 65/71/65
f 65/71/65 9/9/9 7/7/7
f 9/9/9 65/71/65 66/72/66
f 66/72/66 11/11/11 9/9/9
f 11/11/11 66/72/66 67/73/67
f 67/73/67 13/13/13 11/11/11
f 13/13/13 67/73/67 68/74/68
f 68/74/68 15/15/15 13/13/13
f 15/15/15 68/74/68 69/75/69
f 69/75/69 17/17/17 15/15/15
f 17/17/17 69/75/69 70/76/70
f 70/76/70 19/19/19 17/17/17
f 19/19/19 70/76/70 71/77/71
f 71/77/71 21/21/21 19/19/19
f 21/21/21 71/77/71 72/78/72
f 72/78/72 23/23/23 21/21/21
f 23/23/23 72/78/72 73/79/73
f 73/79/73 25/25/25 23/23/23
f 25/25/25 73/79/73 74/80/74
f 74/80/74 27/27/27 25/25/25
f 27/27/27 74/80/74 75/81/75
f 75/81/75 29/29/29 27/27/27
f 29/29/29 75/81/75 76/82/76
f 76/82/76 31/31/31 29/29/29
f 31/31/31 76/82/76 77/83/77
f 77/83/77 33/33/33 31/31/31
f 33/33/33 77/83/77 78/84/78
f 78/84/78 35/35/35 33/33/33
f 35/35/35 78/84/78 79/85/79
f 79/85/79 37/37/37 35/35/35
f 37/37/37 79/85/79 39/86/39
f 80/87/80 58/61/58 55/59/55
f 58/61/58 80/87/80 81/88/81
f 81/88/81 59/63/59 58/61/58
f 59/63/59 81/88/81 61/89/61
f 61/89/61 2/65/2 59/63/59
# 102 faces
