# 3ds Max Wavefront OBJ Exporter v0.97b - (c)2007 guruware
# File Created: 20.01.2012 22:00:59

#
# object RobotBody
#

v  0.0235 2.0116 -1.2665
v  0.0235 1.7774 -1.3572
v  -0.2412 1.7774 -1.3312
v  -0.2235 2.0116 -1.2422
v  -0.4959 1.7774 -1.2539
v  -0.4611 2.0116 -1.1701
v  -0.7305 1.7774 -1.1285
v  -0.6801 2.0116 -1.0530
v  -0.9362 1.7774 -0.9597
v  -0.8720 2.0116 -0.8955
v  -1.1050 1.7774 -0.7540
v  -1.0295 2.0116 -0.7036
v  -1.2304 1.7774 -0.5194
v  -1.1466 2.0116 -0.4847
v  -1.3076 1.7774 -0.2648
v  -1.2186 2.0116 -0.2471
v  -1.3337 1.7774 0.0000
v  -1.2430 2.0116 0.0000
v  -1.3076 1.7774 0.2648
v  -1.2186 2.0116 0.2471
v  -1.2304 1.7774 0.5194
v  -1.1466 2.0116 0.4847
v  -1.1050 1.7774 0.7540
v  -1.0295 2.0116 0.7036
v  -0.9362 1.7774 0.9597
v  -0.8720 2.0116 0.8955
v  -0.7305 1.7774 1.1285
v  -0.6801 2.0116 1.0531
v  -0.4959 1.7774 1.2539
v  -0.4611 2.0116 1.1701
v  -0.2412 1.7774 1.3312
v  -0.2235 2.0116 1.2422
v  0.0235 1.7774 1.3572
v  0.0235 2.0116 1.2665
v  0.2883 1.7774 1.3312
v  0.2706 2.0116 1.2422
v  0.5429 1.7774 1.2539
v  0.5207 2.0116 1.1116
v  0.8398 1.5145 0.9899
v  0.7251 2.0116 0.8955
v  0.9028 1.5000 0.7540
v  0.8826 2.0116 0.7036
v  1.0283 1.5000 0.5194
v  0.9996 2.0116 0.4847
v  1.1055 1.5000 0.2648
v  1.0717 2.0116 0.2471
v  1.1199 1.5000 -0.0000
v  1.0960 2.0116 -0.0000
v  1.1055 1.5000 -0.2648
v  1.0717 2.0116 -0.2471
v  1.0283 1.5000 -0.5194
v  0.9996 2.0116 -0.4847
v  0.9028 1.5000 -0.7540
v  0.8826 2.0116 -0.7036
v  0.8398 1.5145 -0.9899
v  0.7251 2.0116 -0.8955
v  0.5207 2.0116 -1.1116
v  0.5429 1.7774 -1.2539
v  0.2883 1.7774 -1.3312
v  0.2706 2.0116 -1.2422
v  0.0235 1.5289 -1.4266
v  -0.2548 1.5289 -1.3992
v  -0.5224 1.5289 -1.3180
v  -0.7690 1.5289 -1.1862
v  -0.9852 1.5289 -1.0087
v  -1.1626 1.5289 -0.7926
v  -1.2945 1.5289 -0.5459
v  -1.3756 1.5289 -0.2783
v  -1.4031 1.5289 0.0000
v  -1.3756 1.5289 0.2783
v  -1.2945 1.5289 0.5459
v  -1.1626 1.5289 0.7926
v  -0.9852 1.5289 1.0087
v  -0.7690 1.5289 1.1862
v  -0.5224 1.5289 1.3180
v  -0.2548 1.5289 1.3992
v  0.0235 1.5289 1.4266
v  0.3018 1.5289 1.3992
v  0.5695 1.5289 1.3180
v  0.5695 1.5289 -1.3180
v  0.3018 1.5289 -1.3992
# 81 vertices

vn -0.0915 0.3598 -0.9285
vn -0.2708 0.3598 -0.8928
vn -0.4398 0.3598 -0.8228
vn -0.5919 0.3598 -0.7212
vn -0.7212 0.3598 -0.5919
vn -0.8228 0.3598 -0.4398
vn -0.8928 0.3598 -0.2708
vn -0.9285 0.3598 -0.0915
vn -0.9285 0.3598 0.0915
vn -0.8928 0.3598 0.2708
vn -0.8228 0.3598 0.4398
vn -0.7212 0.3598 0.5919
vn -0.5919 0.3598 0.7212
vn -0.4398 0.3598 0.8228
vn -0.2708 0.3598 0.8928
vn -0.0915 0.3598 0.9285
vn 0.0915 0.3598 0.9285
vn 0.2708 0.3598 0.8928
vn 0.3999 0.5036 0.7658
vn 0.7793 0.3779 0.4998
vn 0.6961 0.2857 0.6587
vn 0.9365 0.2606 0.2345
vn 0.7697 0.0927 0.6317
vn 0.8790 0.0811 0.4698
vn 0.9544 0.0731 0.2895
vn 0.9962 0.0677 0.0542
vn 0.9941 0.0464 0.0979
vn 0.9974 0.0466 -0.0542
vn 0.9928 0.0690 -0.0978
vn 0.9544 0.0731 -0.2895
vn 0.8790 0.0811 -0.4698
vn 0.9651 0.0633 -0.2542
vn 0.7407 0.2863 -0.6078
vn 0.6961 0.2857 -0.6587
vn 0.7793 0.3779 -0.4999
vn 0.2479 0.5204 -0.8172
vn 0.4339 0.3486 -0.8308
vn 0.0915 0.3598 -0.9285
vn -0.0944 0.2676 -0.9589
vn -0.2797 0.2676 -0.9220
vn -0.4542 0.2676 -0.8498
vn -0.6113 0.2676 -0.7448
vn -0.7448 0.2676 -0.6113
vn -0.8498 0.2676 -0.4542
vn -0.9220 0.2676 -0.2797
vn -0.9589 0.2676 -0.0944
vn -0.9589 0.2676 0.0944
vn -0.9220 0.2676 0.2797
vn -0.8498 0.2676 0.4542
vn -0.7448 0.2676 0.6113
vn -0.6113 0.2676 0.7448
vn -0.4542 0.2676 0.8498
vn -0.2797 0.2676 0.9220
vn -0.0944 0.2676 0.9589
vn 0.0944 0.2676 0.9589
vn 0.2797 0.2676 0.9220
vn 0.7547 0.2382 0.6113
vn 0.7547 0.2382 -0.6113
vn 0.2797 0.2676 -0.9220
vn 0.0944 0.2676 -0.9589
# 60 vertex normals

vt 0.0000 47.1239 0.0000
vt 0.0000 41.2334 0.0000
vt 5.8905 41.2334 0.0000
vt 5.8905 47.1239 0.0000
vt 11.7810 41.2334 0.0000
vt 11.7810 47.1239 0.0000
vt 17.6715 41.2334 0.0000
vt 17.6715 47.1239 0.0000
vt 23.5619 41.2334 0.0000
vt 23.5619 47.1239 0.0000
vt 29.4524 41.2334 0.0000
vt 29.4524 47.1239 0.0000
vt 35.3429 41.2334 0.0000
vt 35.3429 47.1239 0.0000
vt 41.2334 41.2334 0.0000
vt 41.2334 47.1239 0.0000
vt 47.1239 41.2334 0.0000
vt 47.1239 47.1239 0.0000
vt 53.0144 41.2334 0.0000
vt 53.0144 47.1239 0.0000
vt 58.9049 41.2334 0.0000
vt 58.9049 47.1239 0.0000
vt 64.7953 41.2334 0.0000
vt 64.7953 47.1239 0.0000
vt 70.6858 41.2334 0.0000
vt 70.6858 47.1239 0.0000
vt 76.5763 41.2334 0.0000
vt 76.5763 47.1239 0.0000
vt 82.4668 41.2334 0.0000
vt 82.4668 47.1239 0.0000
vt 88.3573 41.2334 0.0000
vt 88.3573 47.1239 0.0000
vt 94.2478 41.2334 0.0000
vt 94.2478 47.1239 0.0000
vt 100.1383 41.2334 0.0000
vt 100.1383 47.1239 0.0000
vt 106.0288 41.2334 0.0000
vt 106.0288 47.1239 0.0000
vt 111.9193 41.2334 0.0000
vt 117.8097 41.2334 0.0000
vt 117.8097 47.1239 0.0000
vt 111.9193 47.1239 0.0000
vt 123.7002 41.2334 0.0000
vt 123.7002 47.1239 0.0000
vt 129.5907 41.2334 0.0000
vt 129.5907 47.1239 0.0000
vt 135.4812 41.2334 0.0000
vt 135.4812 47.1239 0.0000
vt 141.3717 41.2334 0.0000
vt 141.3717 47.1239 0.0000
vt 147.2622 41.2334 0.0000
vt 147.2622 47.1239 0.0000
vt 153.1527 41.2334 0.0000
vt 153.1527 47.1239 0.0000
vt 159.0432 41.2334 0.0000
vt 159.0432 47.1239 0.0000
vt 164.9337 41.2334 0.0000
vt 164.9337 47.1239 0.0000
vt 170.8241 41.2334 0.0000
vt 170.8241 47.1239 0.0000
vt 176.7146 41.2334 0.0000
vt 176.7146 47.1239 0.0000
vt 182.6051 41.2334 0.0000
vt 182.6051 47.1239 0.0000
vt 188.4956 41.2334 0.0000
vt 188.4956 47.1239 0.0000
vt 0.0000 35.3429 0.0000
vt 5.8905 35.3429 0.0000
vt 11.7810 35.3429 0.0000
vt 17.6715 35.3429 0.0000
vt 23.5619 35.3429 0.0000
vt 29.4524 35.3429 0.0000
vt 35.3429 35.3429 0.0000
vt 41.2334 35.3429 0.0000
vt 47.1239 35.3429 0.0000
vt 53.0144 35.3429 0.0000
vt 58.9049 35.3429 0.0000
vt 64.7953 35.3429 0.0000
vt 70.6858 35.3429 0.0000
vt 76.5763 35.3429 0.0000
vt 82.4668 35.3429 0.0000
vt 88.3573 35.3429 0.0000
vt 94.2478 35.3429 0.0000
vt 100.1383 35.3429 0.0000
vt 106.0288 35.3429 0.0000
vt 111.9193 35.3429 0.0000
vt 176.7146 35.3429 0.0000
vt 182.6051 35.3429 0.0000
vt 188.4956 35.3429 0.0000
# 89 texture coords

f 1/1/1 2/2/1 3/3/1 
f 3/3/1 4/4/1 1/1/1 
f 4/4/2 3/3/2 5/5/2 
f 5/5/2 6/6/2 4/4/2 
f 6/6/3 5/5/3 7/7/3 
f 7/7/3 8/8/3 6/6/3 
f 8/8/4 7/7/4 9/9/4 
f 9/9/4 10/10/4 8/8/4 
f 10/10/5 9/9/5 11/11/5 
f 11/11/5 12/12/5 10/10/5 
f 12/12/6 11/11/6 13/13/6 
f 13/13/6 14/14/6 12/12/6 
f 14/14/7 13/13/7 15/15/7 
f 15/15/7 16/16/7 14/14/7 
f 16/16/8 15/15/8 17/17/8 
f 17/17/8 18/18/8 16/16/8 
f 18/18/9 17/17/9 19/19/9 
f 19/19/9 20/20/9 18/18/9 
f 20/20/10 19/19/10 21/21/10 
f 21/21/10 22/22/10 20/20/10 
f 22/22/11 21/21/11 23/23/11 
f 23/23/11 24/24/11 22/22/11 
f 24/24/12 23/23/12 25/25/12 
f 25/25/12 26/26/12 24/24/12 
f 26/26/13 25/25/13 27/27/13 
f 27/27/13 28/28/13 26/26/13 
f 28/28/14 27/27/14 29/29/14 
f 29/29/14 30/30/14 28/28/14 
f 30/30/15 29/29/15 31/31/15 
f 31/31/15 32/32/15 30/30/15 
f 32/32/16 31/31/16 33/33/16 
f 33/33/16 34/34/16 32/32/16 
f 34/34/17 33/33/17 35/35/17 
f 35/35/17 36/36/17 34/34/17 
f 36/36/18 35/35/18 37/37/18 
f 37/37/19 38/38/19 36/36/19 
f 38/38/20 37/37/20 39/39/20 
f 39/40/21 40/41/21 38/42/21 
f 40/41/22 39/40/22 41/43/22 
f 41/43/23 42/44/23 40/41/23 
f 42/44/24 41/43/24 43/45/24 
f 43/45/24 44/46/24 42/44/24 
f 44/46/25 43/45/25 45/47/25 
f 45/47/25 46/48/25 44/46/25 
f 46/48/26 45/47/26 47/49/26 
f 47/49/27 48/50/27 46/48/27 
f 48/50/28 47/49/28 49/51/28 
f 49/51/29 50/52/29 48/50/29 
f 50/52/30 49/51/30 51/53/30 
f 51/53/30 52/54/30 50/52/30 
f 52/54/31 51/53/31 53/55/31 
f 53/55/31 54/56/31 52/54/31 
f 54/56/32 53/55/32 55/57/32 
f 55/57/33 56/58/33 54/56/33 
f 55/59/34 57/60/34 56/58/34 
f 57/60/35 55/59/35 58/61/35 
f 57/62/36 58/61/36 59/63/36 
f 59/63/37 60/64/37 57/62/37 
f 60/64/38 59/63/38 2/65/38 
f 2/65/38 1/66/38 60/64/38 
f 2/2/39 61/67/39 62/68/39 
f 62/68/39 3/3/39 2/2/39 
f 3/3/40 62/68/40 63/69/40 
f 63/69/40 5/5/40 3/3/40 
f 5/5/41 63/69/41 64/70/41 
f 64/70/41 7/7/41 5/5/41 
f 7/7/42 64/70/42 65/71/42 
f 65/71/42 9/9/42 7/7/42 
f 9/9/43 65/71/43 66/72/43 
f 66/72/43 11/11/43 9/9/43 
f 11/11/44 66/72/44 67/73/44 
f 67/73/44 13/13/44 11/11/44 
f 13/13/45 67/73/45 68/74/45 
f 68/74/45 15/15/45 13/13/45 
f 15/15/46 68/74/46 69/75/46 
f 69/75/46 17/17/46 15/15/46 
f 17/17/47 69/75/47 70/76/47 
f 70/76/47 19/19/47 17/17/47 
f 19/19/48 70/76/48 71/77/48 
f 71/77/48 21/21/48 19/19/48 
f 21/21/49 71/77/49 72/78/49 
f 72/78/49 23/23/49 21/21/49 
f 23/23/50 72/78/50 73/79/50 
f 73/79/50 25/25/50 23/23/50 
f 25/25/51 73/79/51 74/80/51 
f 74/80/51 27/27/51 25/25/51 
f 27/27/52 74/80/52 75/81/52 
f 75/81/52 29/29/52 27/27/52 
f 29/29/53 75/81/53 76/82/53 
f 76/82/53 31/31/53 29/29/53 
f 31/31/54 76/82/54 77/83/54 
f 77/83/54 33/33/54 31/31/54 
f 33/33/55 77/83/55 78/84/55 
f 78/84/55 35/35/55 33/33/55 
f 35/35/56 78/84/56 79/85/56 
f 79/85/56 37/37/56 35/35/56 
f 37/37/57 79/85/57 39/86/57 
f 80/87/58 58/61/58 55/59/58 
f 58/61/59 80/87/59 81/88/59 
f 81/88/59 59/63/59 58/61/59 
f 59/63/60 81/88/60 61/89/60 
f 61/89/60 2/65/60 59/63/60 
# 102 faces

