# 3ds Max Wavefront OBJ Exporter v0.97b - (c)2007 guruware
# File Created: 01.02.2012 19:28:53

#
# object Object001
#

v  -19.2000 3.5000 -4.0000
v  -19.2000 19.2000 -12.0000
v  -19.2000 3.5000 4.0000
v  -19.2000 0.0000 -12.0000
v  -19.2000 0.0000 12.0000
v  -19.2000 0.0000 4.0000
v  -19.2000 0.0000 -4.0000
v  -19.2000 19.2000 12.0000
# 8 vertices

vn 1.0000 0.0000 -0.0000
# 1 vertex normals

vt 0.3333 0.1823 0.0000
vt 0.0000 1.0000 0.0000
vt 0.6667 0.1823 0.0000
vt 0.0000 0.0000 0.0000
vt 1.0000 0.0000 0.0000
vt 0.6667 0.0000 0.0000
vt 0.3333 0.0000 0.0000
vt 1.0000 1.0000 0.0000
# 8 texture coords

g Object001
f 1/1/1 2/2/1 3/3/1 
f 4/4/1 2/2/1 1/1/1 
f 3/3/1 5/5/1 6/6/1 
f 4/4/1 1/1/1 7/7/1 
f 8/8/1 5/5/1 3/3/1 
f 8/8/1 3/3/1 2/2/1 
# 6 faces

