v 19.2 3 4
v 19.2 19.2 -12
v 19.2 3 -4
v 19.2 0 -12
v 19.2 0 4
v 19.2 0 12
v 19.2 0 -4
v 19.2 19.2 12
v 21.2 0 -4
v 20.5 3 -4
v 20.5 3 4
v 21.2 0 4
# 12 vertices

vn -116 -1.73333 -0.65
vn -262.667 -0.577777 -0.216667
vn -94.9778 -3.56296 0.613889
vn -136.289 -1.78148 0.306944
vn -32.0578 6.0437 -1.91861
vn -104.829 3.02185 -0.959305
vn -32.2072 4.75546 2.23517
vn -287.304 2.37773 1.11759
vn -77.8259 7.19443 1.7794
vn -25.1652 -2.88111 2.33588
vn -9.83304 -5.85622 -1.51282
vn -14.4583 -0.264059 -1.87821
# 12 normals (1 per vertex)

vt 0.0005 0.3335 0
vt 0.0005 0.9995 0
vt 0.0005 0.6665 0
vt 0.0005 0.9995 0
vt 0.0005 0.3335 0
vt 0.0005 0.0005 0
vt 0.0005 0.6665 0
vt 0.0005 0.0005 0
vt 0.9995 0.6665 0
vt 0.6498 0.6665 0
vt 0.6498 0.3335 0
vt 0.9995 0.3335 0
# 12 texture coords

f 1/1/1 2/2/2 3/3/3
f 3/3/3 2/2/2 4/4/4
f 5/5/5 6/6/6 1/1/1
f 7/7/7 3/3/3 4/4/4
f 1/1/1 6/6/6 8/8/8
f 2/2/2 1/1/1 8/8/8
f 7/7/7 9/9/9 10/10/10
f 3/3/3 7/7/7 10/10/10
f 5/5/5 11/11/11 12/12/12
f 1/1/1 11/11/11 5/5/5
f 11/11/11 3/3/3 10/10/10
f 11/11/11 1/1/1 3/3/3
f 12/12/12 11/11/11 10/10/10
f 12/12/12 10/10/10 9/9/9
f 5/5/5 12/12/12 9/9/9
f 5/5/5 9/9/9 7/7/7
# 16 faces
